<svg xmlns="http://www.w3.org/2000/svg" width="150" height="150" viewBox="0 0 150 150">
    <path data-name="패스 1911" d="M140.878 19.836a40.421 40.421 0 0 0-2.5-3.748A36.205 36.205 0 0 0 121.7 3.114a40.337 40.337 0 0 0-33.274 1A35.763 35.763 0 0 0 74 16.018a40.274 40.274 0 0 0-4.516 7.612 61.323 61.323 0 0 0-5.7 17.513 58.02 58.02 0 0 0-15.6-6.12 38.036 38.036 0 0 0-8.238-1.323 33.775 33.775 0 0 0-17.34 3.262A37.968 37.968 0 0 0 1.813 60.458a34.068 34.068 0 0 0-.64 19.9 37.921 37.921 0 0 0 1.212 4.072c9.11 26.647 33.688 39.961 60.459 42.135a337.962 337.962 0 0 1 35.38 4.729c3.573 10.313 4.871 17.979 5.22 18.622l.025.08.009-.018.009.016.02-.077c.6-1.259 14.551-29.247 30.764-52.285 16.38-23.273 22.18-52.313 6.607-77.8" transform="translate(0 -.001)" style="fill:#fff"/>
    <path data-name="사각형 1686" transform="translate(80.256 46.603)" style="fill:#0089b0" d="M0 0h13.767v1.741H0z"/>
    <path data-name="패스 1912" d="M78.509 7.5a.774.774 0 0 1-.369.036c-.339.8-.9 2.228-.733 2.488.159.242 1.416.128 2.252.023a.754.754 0 0 1 .492-.821.759.759 0 1 1-.323 1.2c-.97.267-2.542.816-2.532 1.51.014 1.008.217 3.358.353 4.423s-1.847 1.734-2.92 1.977c-.907.2-2.9.443-3.378 1.132a13.053 13.053 0 0 1 .858 2.959c.307 1.877-.027 3.474 3.214 6.275 1.767 1.156 4.027 2.562 4.6 3.316.875 1.145-.485 5.732.365 8.052s1.681 2.518 3.869 2.276c2.129-.235 2.8.009 4.277-2.913a.762.762 0 1 1 .587.027.5.5 0 0 1-.128.032c-.185.582-.588 1.925-.4 2.13s2.307-1.077 3.327-1.87a.889.889 0 0 1-.062-.132.761.761 0 1 1 .383.424c-.858.607-2.583 1.895-2.466 2.311.1.381 1.738.23 2.733.1a.758.758 0 0 1 1.455-.392 60.984 60.984 0 0 0-8.941-27.427 39.835 39.835 0 0 0-2.5-3.748A41.326 41.326 0 0 0 79 6.667a.759.759 0 0 1-.49.833" transform="translate(55.855 5.203)" style="fill:#0999bd"/>
    <path data-name="패스 1913" d="M51.908 70.38q.776 1.6 1.48 3.182V60.335h-1.48z" transform="translate(40.635 47.099)" style="fill:#0089b0"/>
    <path data-name="패스 1914" d="M90.37 40.577H72.2V52.7l.242.061a9.427 9.427 0 0 1 4.473 2.484 8.755 8.755 0 0 1 2.808 6.423 9.047 9.047 0 0 1-.148 1.613 88.384 88.384 0 0 0 10.795-22.7" transform="translate(56.52 31.675)" style="fill:#0999bd"/>
    <path data-name="패스 1915" d="M98.99 102.543a9.442 9.442 0 0 1-6.828-2.743 8.771 8.771 0 0 1-2.765-6.46 8.576 8.576 0 0 1 .476-2.751l.137-.406H75.448V73.81h8.677v-9.939h-8.561v-7.028h16.377v24.019h-8.889v1.494h8.889v4.8l.526-.488c.223-.2.462-.394.751-.616l.127-.094V56.843h7.714v8.472h19.923a66.02 66.02 0 0 0 1.211-17.584.76.76 0 0 1-1.451.075c-.011-.03-.014-.064-.023-.1a27.394 27.394 0 0 0-2.913.732 10.939 10.939 0 0 1 1.995 1.177.585.585 0 0 1 .911.705.588.588 0 1 1-1.043-.541 8.212 8.212 0 0 0-2.234-.881 5.068 5.068 0 0 0 .28 1.291.712.712 0 0 1 .1-.046.76.76 0 1 1-.455.976.6.6 0 0 1 .021-.573 2.072 2.072 0 0 0-1.818-1.28c-1.754-.326-5.871-.559-7.1-1.574s-2.252-7.822-2.33-8.855-4.994-1.772-7.049-3.8c0 0-4.09 3.214-6.575 4.17 2.635-.4 6.522.251 7.375.8s-1.12 3.442-.635 6.145c.1.54.176 1.006.25 1.417a8.549 8.549 0 0 0 1.9.087.769.769 0 0 1 .39-.474.76.76 0 1 1-.341 1.02c-.009-.012-.009-.025-.018-.039a6.523 6.523 0 0 0-1.754.328 5.932 5.932 0 0 0 .526 1.635.68.68 0 0 1 .164-.085.758.758 0 1 1-.455.97.769.769 0 0 1 .064-.645 13.39 13.39 0 0 1-1.339-.91c-.663-.525-.717 1.893-.64 3.451a.759.759 0 1 1-.66 1.019.753.753 0 0 1 .394-.949c-.1-.864-.342-2.516-.665-2.7s-1.232.96-1.82 1.736a.817.817 0 0 1 .086.16.762.762 0 1 1-.362-.41 7.946 7.946 0 0 0 .984-2.593c-.073-.5-1.656-.678-2.457-.735a.758.758 0 1 1 .012-.547c.005.012.007.025.013.041a4.746 4.746 0 0 0 2.266-.317 7.149 7.149 0 0 0 2.483-3.584c.656-1.806.21-2.607.21-2.607s-5.322-.027-7.682.025-3.3-.718-3.268-1.334 4.179-3.973 6.616-5.244c.681-.358 1.186-.6 1.186-.6s-.341-.548-.733-1.166a18.581 18.581 0 0 1-2.819-6.567 22.579 22.579 0 0 1-5.527.65c-1.043-.073-2.268-3.974-3.106-5.029-.788-.988-1.818-.828-3.838-.2a.759.759 0 1 1-1-.867.758.758 0 0 1 .957.41 6.532 6.532 0 0 0 1.974-.976c.2-.3-1.407-1.261-2.23-1.731a.727.727 0 0 1-.266.167.76.76 0 1 1 .453-.976.746.746 0 0 1 .032.4c.7.337 2.079.944 2.557.732.437-.192.091-1.533-.185-2.4a.762.762 0 1 1 .251-.046l-.009.005c.314.871.847 2.245 1.114 2.32s1.269-1.029 1.861-1.722a.421.421 0 0 1-.05-.1.76.76 0 1 1 .973.449.747.747 0 0 1-.67-.077c-.542.855-1.4 2.329-1.264 2.808.2.682 1.4 2.317 2.524 4.281.569.992 5.022-.114 5.022-.114s-.809-5.682 2.072-6.366a.9.9 0 0 1 .355-.041c2.719-.2 4.915 4.635 4.915 4.635s4.987-1.48 5.423-1.774a13.026 13.026 0 0 0-.4-3.593c-.214-.709-2.464-1.5-3.493-1.877a.722.722 0 0 1-.267.166.758.758 0 1 1 .451-.974.729.729 0 0 1 .03.417 12.647 12.647 0 0 0 2.475.34c.446-.055-.08-1.649-.424-2.582a.756.756 0 0 1-.246-1.467.756.756 0 0 1 .565 1.4c.424.921 1.157 2.431 1.421 2.368a11.448 11.448 0 0 0 1.71-2.63.712.712 0 0 1-.2-.3.756.756 0 0 1 .858-1 34.969 34.969 0 0 0-12.559-8.125A40.129 40.129 0 0 0 74.81.172c-.259.025-.512.061-.767.089v22.946h6.625v6.936h-6.625v7.963h-7.684V1.883a40.215 40.215 0 0 0-5.593 2.231 35.74 35.74 0 0 0-14.378 11.849H64.9v6.213H52.405v1.645H64.9v6.321H52.405v1.779H64.9v6.184H45.039V17.859a40.954 40.954 0 0 0-3.211 5.773 60.892 60.892 0 0 0-6.213 33.282h8.053v23.88h-1.421q.342.74.7 1.476h.718v1.448q.663 1.29 1.364 2.564V56.914h7.7v8.421h12.15v24.852h-7.585l-.02-17.387h-4.539v17.387h-5.414q.449.724.911 1.444h7.65v7.626h-2.195a90.384 90.384 0 0 1 3.626 4.995v-12.6h7.568v8h1.48v-8h7.673v31.327H67.37c6.046 14.277 7.978 26.134 8.417 26.943l.025.08.009-.02.009.018.02-.077A464.494 464.494 0 0 1 104.285 101a9.455 9.455 0 0 1-5.295 1.542M45.039 39.6h29.01v15.749h-29.01zm29 50.59h-7.678V56.843h7.673v8.492h8.581v7.11h-8.581zm18.334 14.24-1.271.265a3.4 3.4 0 0 1-.965 2.324l.05 6.622a2.808 2.808 0 0 1-2.79 2.817 2.8 2.8 0 0 1-2.822-2.783l-.007-.906h-4.442c-.239.207-.49.427-.736.629a3.046 3.046 0 0 1-1.059.746.092.092 0 0 1-.061-.009c-.009-.011-.009-.028 0-.057a5.807 5.807 0 0 1 1.284-1.914v-4.327l-.909.005a2.8 2.8 0 0 1-2-4.783 2.829 2.829 0 0 1 1.995-.855l6.591-.014a3.439 3.439 0 0 1 2.318-.994l.248-1.275a.55.55 0 0 1 .642-.431.555.555 0 0 1 .435.641l-.239 1.2a3.447 3.447 0 0 1 2.314 2.285l1.194-.256a.549.549 0 0 1 .228 1.074" transform="translate(27.662 -.001)" style="fill:#0999bd"/>
    <path data-name="패스 1916" d="M84.974 76.913h7.568v8h1.48v-8h2.455c-.109-.484-.216-.974-.323-1.464h-2.132v-8.458q-.682-2.262-1.476-4.473v12.931h-7.595l-.016-17.384H80.4v17.384h-7.7V42.176h7.7V50.6h6.73a69.574 69.574 0 0 0-6.75-9.986H72.7v-7.9a57.411 57.411 0 0 0-24.5-12.427 38.147 38.147 0 0 0-8.251-1.321 33.786 33.786 0 0 0-17.338 3.264A37.955 37.955 0 0 0 1.816 45.721a34.067 34.067 0 0 0-.64 19.9c.152.645.324 1.286.512 1.923H19.3v-17.58h-7.826v-7.788H35.3v7.789h-8.4v9.008h8.4v7.894h-8.4v8.5H4.664a58.2 58.2 0 0 0 23.624 25.992c-1.383-3.139.155-3.9.772-4.147a14.2 14.2 0 0 0-2.437-3.162 13.266 13.266 0 0 1-2.99.3c.439-.2 2.161-1.311 2.161-1.311s-.6-2.122.954-3.134c2.8-1.818 4.835.326 7.185 1.738l.144.064c.291.105.661.518 1.383-.493l.012-.027c1.654-3.52 6.142-5.086 11.688-5.769s15.528.183 15.528.183c-.187.066-.4.132-.638.2-3.217 1.017-17.726 5.709-17.75 7.837a1.069 1.069 0 0 0 .289.629c1.621 1.517 9.722.465 13.007-.472 3.665-1.045 10.189-2.657 13.257-2.618a153.67 153.67 0 0 0-16.081 6.635c5.436 1.676 16.52 2.42 16.52 2.42-5.2 1.337-11.681.4-17.605.189a28.574 28.574 0 0 0-8.631 1.149c-2.548 1.017-4.921 2.155-7.746 2.3 5.808 4.338 14.393 1.706 14.393 1.706a15.9 15.9 0 0 1-6.862 2.942 88.735 88.735 0 0 0 18.008 3.317 348.172 348.172 0 0 1 22.127 2.509zM35.891 38.168a.522.522 0 0 1-.688.253.422.422 0 0 1-.139-.093.5.5 0 0 1-.111-.582l1.079-2.37c-1.54-.723-2.655-1.307-3.441-1.777l-1.314 1.245.916.281a.517.517 0 0 1 .344.641.506.506 0 0 1-.64.342l-1.772-.541a.527.527 0 0 1-.212-.125.55.55 0 0 1-.141-.253.517.517 0 0 1 .153-.486l1.781-1.686c-1.054-.75-1.047-1.093-.972-1.213a18.638 18.638 0 0 1-1.879-1.346.74.74 0 0 1-.758.114.8.8 0 0 1-.374-1.051.759.759 0 0 1 .277-.242 4.03 4.03 0 0 1 .045-3.779 3.977 3.977 0 0 1 3.033-2.395.762.762 0 0 1 .03-.6.785.785 0 0 1 1.05-.365.734.734 0 0 1 .373.835 14.406 14.406 0 0 1 2.184.661c.153-.085.517-.125 1.282.071l.107-2.548a.5.5 0 0 1 .269-.438.517.517 0 0 1 .517.02l1.569.974a.513.513 0 0 1-.538.873l-.825-.506-.077 1.941a36.805 36.805 0 0 1 3.493 1.53l1.187-2.607a.518.518 0 0 1 .683-.258.51.51 0 0 1 .253.678l-1.2 2.646c1.007.506 2.154 1.111 3.471 1.836 10.6 5.839 10.438 8.72 10.212 9.19-.2.41-2.844-.066-5.113-.946 2.1 1.222 4.133 3 3.933 3.4-.228.47-2.373 2.4-13.56-2.219a92.252 92.252 0 0 1-3.4-1.469zm8.517 37.278h-7.57V42.178h7.57zm26.921 0h-9.16V84H54.52v-8.551h-8.68v-7.917h25.488zm0-9.393h-7.693V49.964H45.84v-7.788h25.488zm12.212 18.466H80.4v16.341h3.145v7.379H72.7V76.893h10.841z" transform="translate(.003 14.738)" style="fill:#6eb92b"/>
    <path data-name="패스 1917" d="M68.185 86.418c-.328-.821-3.439-8.716-7.126-21.478v10.938h-7.671V60.335h-1.48v22.84c9.631 1.64 15.534 3.109 16.241 3.289l.068.032-.007-.016h.018l-.043-.066" transform="translate(40.635 47.099)" style="fill:#6eb92b"/>
    <path data-name="패스 1918" d="M61.1 49.813q-.679-2.257-1.476-4.459V58.27h-7.597l-.016-17.383h-4.539V58.27h-5.411q.449.727.915 1.444h7.641v7.626h-2.195q1.923 2.468 3.628 5.009V59.733h7.568v8H61.1v-8h2.455c-.109-.484-.216-.974-.323-1.464H61.1z" transform="translate(32.927 31.917)" style="fill:#00783c"/>
    <path data-name="패스 1919" d="M51.908 70.383a117.938 117.938 0 0 1 1.48 3.193V60.335h-1.48z" transform="translate(40.635 47.099)" style="fill:#00783c"/>
    <path data-name="패스 1920" d="M43.666 38.875v23.88h-1.419c.23.5.46.986.7 1.476h.72v1.441q.658 1.29 1.362 2.561V38.875h7.7V47.3h6.734a69.461 69.461 0 0 0-6.744-9.988h-7.682V29.4a57.687 57.687 0 0 0-8.9-6.291 61.737 61.737 0 0 0-.513 15.768z" transform="translate(27.666 18.037)" style="fill:#00783c"/>
    <path data-name="패스 1921" d="M67.095 84.4c-.328-.821-3.439-8.716-7.126-21.478v10.937H53.3c1.225 2.9 2.287 5.694 3.2 8.319 6.246 1.19 10 2.122 10.559 2.267l.068.032-.007-.016h.018l-.043-.066" transform="translate(41.726 49.118)" style="fill:#00783c"/>
</svg>
