<svg xmlns="http://www.w3.org/2000/svg" width="178.605" height="56" viewBox="0 0 178.605 56">
    <g data-name="그룹 102">
        <path data-name="패스 1865" d="m174.53 35.692.061-.05a4.879 4.879 0 0 0 .423-.309 4.62 4.62 0 0 0 .419-.305 4.668 4.668 0 0 0 .42-.307 4.593 4.593 0 0 0 .418-.3 4.957 4.957 0 0 0 2.334-4.164v-.063a4.951 4.951 0 0 0-1.453-3.527c.08-.079.163-.157.238-.242a4.769 4.769 0 0 0 .7-1.058 4.285 4.285 0 0 0 .447-1.66l.012-.168a8.07 8.07 0 0 0 .026-.515 440.95 440.95 0 0 0-.007-10.3 4.835 4.835 0 0 0-4.738-4.775c-2.6-.06-8.742-.081-13.621-.081-6.13 0-11.32.03-13.545.079a5.051 5.051 0 0 0-4.269 2.508c-.1.134-.186.271-.269.414s-.183.267-.265.408c-.1.134-.186.271-.27.414s-.181.267-.265.409a4.833 4.833 0 0 0-.268.412c-.1.133-.184.268-.267.41a4.755 4.755 0 0 0-.265.409 4.886 4.886 0 0 0-.27.414c-.031.043-.068.079-.1.124 0-.266-.009-.534-.015-.776a5.359 5.359 0 0 0-5.314-5.217h-.081a5.345 5.345 0 0 0-4.86 3.18 12.327 12.327 0 0 0-6.008-7.109A4.488 4.488 0 0 0 121.741.65a4.32 4.32 0 0 0-4.556 0 4.432 4.432 0 0 0-1.977 2.633c-.056.143-.092.3-.136.447-.03.078-.055.159-.082.239a12.514 12.514 0 0 0-6.2 7.882l-.007.032-.009.031-.028.119c-.023.075-.047.149-.067.223l-.019.073-.073.268-.01.028-.015.049-.18.6-.014.037a12.184 12.184 0 0 0-3.807 1.61c-.009-.634-.017-1.242-.029-1.815A5.373 5.373 0 0 0 99.2 7.86h-.092a5.32 5.32 0 0 0-4.259 2.168 4.845 4.845 0 0 0-3.275-1.318c-1.826-.019-4.609-.031-7.632-.031s-5.826.012-7.686.031a5.046 5.046 0 0 0-4.187 2.342 5.342 5.342 0 0 0-4.848-3.192h-.132a5.286 5.286 0 0 0-4.067 1.931 4.85 4.85 0 0 0-3.345-1.442c-1.685-.038-5.361-.061-9.6-.061s-7.9.023-9.588.061a4.843 4.843 0 0 0-4.107 2.473c-.076-.12-.15-.238-.234-.353a5.315 5.315 0 0 0-4.512-2.582h-.131a5.341 5.341 0 0 0-5.3 5.233 573.59 573.59 0 0 0-.048 4.553c-.071-.091-.15-.174-.224-.262-.1-.144-.226-.269-.34-.4s-.228-.269-.342-.4-.228-.271-.343-.407-.228-.27-.342-.4-.228-.27-.343-.406-.226-.268-.34-.4-.228-.269-.34-.4l-.345-.408c-.115-.137-.226-.267-.34-.4s-.228-.271-.343-.407l-.34-.4-.343-.4-.34-.4c-.113-.132-.23-.272-.346-.409l-.339-.4a7.322 7.322 0 0 0-12.832 1.834C5.812 19.386 2.467 29.661.26 36.583a5.425 5.425 0 0 0 2.657 6.464 4.79 4.79 0 0 0 .42.265c.138.09.269.188.416.264s.271.187.418.264.269.186.416.263.271.189.42.265a4.748 4.748 0 0 0 .418.264c.138.089.267.187.414.264s.271.187.418.264.273.189.421.266.267.185.414.262.271.188.418.264.269.187.418.264.269.188.416.264.271.188.42.265.271.188.418.264a4.758 4.758 0 0 0 .416.263 4.572 4.572 0 0 0 .42.265 4.748 4.748 0 0 0 .418.264 4.725 4.725 0 0 0 .414.263c.14.091.273.189.421.266s.267.186.414.263a4.792 4.792 0 0 0 .42.265c.138.09.269.187.416.264a4.75 4.75 0 0 0 .418.264 4.749 4.749 0 0 0 .418.264c.138.09.271.188.418.264a4.74 4.74 0 0 0 .418.264 4.455 4.455 0 0 0 .414.263 4.669 4.669 0 0 0 .421.266 4.779 4.779 0 0 0 .416.264c.14.09.271.188.42.264a4.664 4.664 0 0 0 .414.263 4.81 4.81 0 0 0 .418.264 4.853 4.853 0 0 0 .42.265 4.485 4.485 0 0 0 .416.263 4.6 4.6 0 0 0 .418.265 4.534 4.534 0 0 0 .418.264 4.811 4.811 0 0 0 .418.264 4.759 4.759 0 0 0 .416.263 4.373 4.373 0 0 0 .42.265 4.7 4.7 0 0 0 7.093-2.39c.28-.817.6-1.717.927-2.645.072.057.142.114.217.168.11.093.22.186.338.269s.213.182.328.264.215.183.331.264.216.185.332.267.217.183.332.265.215.184.331.265.215.183.33.264.217.184.332.265.217.186.334.268.214.182.329.263.215.185.332.267.217.184.333.266.215.183.33.264.217.185.334.266.213.183.329.264.215.184.332.265a4.167 4.167 0 0 0 .332.266 4.728 4.728 0 0 0 4.489.917 4.817 4.817 0 0 0 .911-.392l.009.008c.092.093.2.172.295.258s.194.171.292.257l.295.257a4.624 4.624 0 0 0 3.279 1.4l.011-.275c.02 0 .039 0 .058-.006v.281a4.664 4.664 0 0 0 3.622-1.751c.042.041.086.075.128.113.081.088.161.175.25.257a4.128 4.128 0 0 0 3.013 1.368c1.661.023 4.733.035 8.655.035 5.221 0 10.62-.021 13.13-.053a4.475 4.475 0 0 0 4.03-2.7 4.426 4.426 0 0 0 2.935 1.196c1.747.016 3.852.025 5.965.025h.086c2.143 0 4.287-.009 6.071-.027A4.346 4.346 0 0 0 92.84 54c.064.042.121.089.187.128a4.638 4.638 0 0 0 .5.338c.116.085.227.171.349.245a4.5 4.5 0 0 0 .506.343 4.585 4.585 0 0 0 2.74.947h.068a4.679 4.679 0 0 0 4.676-4.553c.031-1.685.054-4.012.062-6.59a5.386 5.386 0 0 0 1.872-1.928 6.205 6.205 0 0 0 .513.75c-.013.035-.021.072-.034.106-.041.095-.062.2-.1.295s-.061.2-.1.294-.06.193-.095.288-.064.2-.1.3-.063.195-.1.291-.063.2-.1.295-.06.194-.095.29-.062.2-.1.295-.062.2-.1.294-.062.194-.094.291a4.309 4.309 0 0 0-.354 1.7v.063a4.374 4.374 0 0 0 4.352 4.374c1.474 0 3.77.008 6.149.008 2.752 0 5.81 0 7.668-.011a4.734 4.734 0 0 0 4.457 3.151h.053a4.693 4.693 0 0 0 3.485-1.575c.083-.079.154-.171.232-.256s.158-.172.236-.26.154-.171.232-.256.157-.172.234-.259.156-.171.234-.258l.233-.258.233-.257c.05-.048.1-.1.144-.151a3.723 3.723 0 0 0 .214.8 4.2 4.2 0 0 0 1.257 1.761 4.821 4.821 0 0 0 2.91.937c1.587.02 4.743.032 8.663.032 5.394 0 10.695-.021 12.89-.051a4.294 4.294 0 0 0 2.47-.83 4.12 4.12 0 0 0 .42-.256 4.339 4.339 0 0 0 .419-.255A242.415 242.415 0 0 0 161 54.1a4.465 4.465 0 0 0 .419-.255 4.611 4.611 0 0 0 .421-.257 4.528 4.528 0 0 0 .416-.253 4.275 4.275 0 0 0 .424-.259 4.519 4.519 0 0 0 .416-.252 4.407 4.407 0 0 0 .425-.26 4.535 4.535 0 0 0 .417-.253 4.615 4.615 0 0 0 .42-.256 4.353 4.353 0 0 0 .419-.255 216.353 216.353 0 0 1 .839-.511 4.737 4.737 0 0 0 .421-.257 296.013 296.013 0 0 1 .839-.511 1841.977 1841.977 0 0 0 .84-.512 4.607 4.607 0 0 0 .419-.255 4.656 4.656 0 0 0 .421-.257 4.742 4.742 0 0 0 .419-.255c.141-.082.286-.16.419-.255a4.839 4.839 0 0 0 .419-.256 4.633 4.633 0 0 0 .42-.257 4.572 4.572 0 0 0 .419-.254 4.649 4.649 0 0 0 .421-.257 4.546 4.546 0 0 0 .417-.254 269.773 269.773 0 0 0 .839-.511 4.383 4.383 0 0 0 .424-.259 301.771 301.771 0 0 0 .838-.51 1415.662 1415.662 0 0 1 .839-.511c.142-.082.287-.16.42-.256a4.722 4.722 0 0 0 .419-.255 4.837 4.837 0 0 0 .42-.255c.143-.083.289-.161.422-.257a4.954 4.954 0 0 0 2.5-4.273v-.07a4.977 4.977 0 0 0-4.075-4.864" style="fill:#3cb371"/>
    </g>
    <g data-name="그룹 104">
        <path data-name="패스 1866" d="M178.265 38.645c-1.175-.008-21.326.007-22.546.024-.221 0-.716.017-.737-.279a2.567 2.567 0 0 0-.281-1.45 2.737 2.737 0 0 0-1.194-.964 4.617 4.617 0 0 0-1.9-.389 3.551 3.551 0 0 0-2.995 1.305 3.254 3.254 0 0 0-.368 1.963c0 .817-.014 1.655 0 2.471a4.789 4.789 0 0 0 .2 1.589 2.8 2.8 0 0 0 .853 1.232 3.584 3.584 0 0 0 2.143.631c5.158.066 21.922.045 26.878-.023a3.013 3.013 0 0 0 2.97-3.017v-.071a3.038 3.038 0 0 0-3.025-3.021" transform="translate(-4.622 -1.109)" style="fill:#fff"/>
        <path data-name="패스 1867" d="M178.3 27.935c-1.836-.016-8.528-.033-10.019-.038a.555.555 0 0 1-.561-.38c0-.01-.008-.011-.011-.019-.316-1.473-2.253-1.909-3.154-1.909h-.884c-.761 0-2.834.427-3.152 1.894-.007.013-.016.017-.02.034-.109.4-.587.381-.587.381h.006c-1.353.013-8.418.016-8.681.019a3.03 3.03 0 0 0-3 3.033v.063a3.034 3.034 0 0 0 3.015 3.034c5.223.033 21.76.032 27.035 0a3.021 3.021 0 0 0 3-3.011v-.064a3.024 3.024 0 0 0-2.994-3.041" transform="translate(-4.621 -.797)" style="fill:#fff"/>
        <path data-name="패스 1868" d="M151.19 23.812a2.983 2.983 0 0 1-2.953-2.986v-.073a2.96 2.96 0 0 1 2.935-2.973c1.436-.011 21.342 0 23.031 0a.606.606 0 0 0 0-1.212c-.575 0-21.454.047-22.857.032a3.141 3.141 0 0 1-3.108-3.145v-.077a3.17 3.17 0 0 1 3.1-3.188c4.809-.106 22.43-.106 27.079 0a2.907 2.907 0 0 1 2.844 2.867c.042 2.837.044 7.2.008 10.25 0 .2-.024.4-.036.592a2.364 2.364 0 0 1-.253.924 2.876 2.876 0 0 1-2.6 1.61h-.79a2.878 2.878 0 0 1-2.819-2.248.52.52 0 0 0-.5-.339 1.507 1.507 0 0 0-.2 0z" transform="translate(-4.622 -.315)" style="fill:#fff"/>
        <path data-name="패스 1869" d="M68.306 10.113h.122a3.378 3.378 0 0 1 3.363 3.309c.1 4.8.1 12.815 0 17.648a3.389 3.389 0 0 1-3.4 3.314h-.079a3.374 3.374 0 0 1-3.372-3.331 921.087 921.087 0 0 1 0-17.592 3.38 3.38 0 0 1 3.364-3.348M57.08 23.069c.04-1.369.041-4.145 0-5.513a1.256 1.256 0 0 0-1.239-1.223 812.552 812.552 0 0 0-9.1-.013 1.257 1.257 0 0 0-1.241 1.225c-.04 1.366-.039 4.146 0 5.517a1.26 1.26 0 0 0 1.235 1.225c1.051.023 8.092.024 9.114 0a1.253 1.253 0 0 0 1.227-1.219m-14.764 8.11a3.48 3.48 0 0 1 3.481 3.467c0 1.017 0 2.009-.026 2.629a.331.331 0 0 0 .346.351c2.4-.054 17.4-.092 22.6-.058a3.169 3.169 0 0 1 3.154 3.157v.076a3.153 3.153 0 0 1-3.11 3.156c-5.553.07-21.8.1-27.167.023a2.766 2.766 0 0 1-2.733-2.706 196.36 196.36 0 0 1-.025-6.656 3.484 3.484 0 0 1 3.48-3.438M41.744 10.6c3.613-.081 15.488-.081 19.1 0a2.921 2.921 0 0 1 2.856 2.849c.091 3.513.092 10.12 0 13.641a2.93 2.93 0 0 1-2.875 2.854c-3.6.066-15.472.066-19.068 0a2.929 2.929 0 0 1-2.875-2.852c-.09-3.521-.09-10.126 0-13.641a2.925 2.925 0 0 1 2.86-2.848" transform="translate(-1.21 -.315)" style="fill:#fff"/>
        <path data-name="패스 1870" d="M105.433 29.256a.434.434 0 0 0-.409.437c0 4.292-.034 8.342-.084 11.013a3.389 3.389 0 0 1-3.413 3.317h-.079a3.381 3.381 0 0 1-3.364-3.323c-.1-6.482-.1-20.7 0-27.231a3.4 3.4 0 0 1 3.392-3.352h.079a3.405 3.405 0 0 1 3.392 3.347c.046 2.328.074 5.326.077 8.962a.429.429 0 0 0 .409.438 3.175 3.175 0 0 1 3.18 3.158v.078a3.17 3.17 0 0 1-3.18 3.157M75.561 14.131v-.064a3.1 3.1 0 0 1 3.071-3.1 926.143 926.143 0 0 1 15.277 0 2.935 2.935 0 0 1 2.9 2.9c.056 4.231.058 11.9 0 16.278a3.34 3.34 0 0 1-3.361 3.292h-.078a3.324 3.324 0 0 1-3.317-3.309c-.018-3.5 0-8.54.025-11.545a1.316 1.316 0 0 0-1.336-1.332c-2.146.024-7.288.014-10.122-.016a3.1 3.1 0 0 1-3.063-3.1m21.297 24.701v.071a3.113 3.113 0 0 1-3.075 3.147c-4.441.045-10.692.046-15.1 0a3.135 3.135 0 0 1-3.114-3.121v-.069a3.136 3.136 0 0 1 3.076-3.12l.879-.018a.421.421 0 0 0 .42-.42c-.021-2.5-.013-6.1.016-8.754a3.414 3.414 0 0 1 3.406-3.379h.08a3.411 3.411 0 0 1 3.406 3.379c.029 2.645.038 6.23.016 8.747a.419.419 0 0 0 .425.42c3.069 0 4.323.016 6.5.045a3.1 3.1 0 0 1 3.063 3.071" transform="translate(-2.356 -.315)" style="fill:#fff"/>
        <path data-name="패스 1871" d="M32.413 10.142h.124a3.377 3.377 0 0 1 3.363 3.316c.123 6.517.123 20.732 0 27.221a3.388 3.388 0 0 1-3.414 3.315h-.076a3.381 3.381 0 0 1-3.364-3.326c-.1-6.491-.1-20.681 0-27.2a3.377 3.377 0 0 1 3.367-3.326" transform="translate(-.904 -.316)" style="fill:#fff"/>
        <path data-name="패스 1872" d="M20.064 14.321c2.163 6.781 5.158 17.417 6.782 23.233a3.534 3.534 0 0 1-2.356 4.324 3.532 3.532 0 0 1-4.426-2.319c-1.6-5.141-3.655-11.96-4.716-15.5a.423.423 0 0 0-.8-.028c-1.358 3.589-4.064 10.824-5.727 15.673A3.5 3.5 0 0 1 2.169 37.5c1.865-5.849 5.365-16.666 7.7-23.323a5.38 5.38 0 0 1 10.2.142" transform="translate(-.063 -.33)" style="fill:#fff"/>
        <path data-name="패스 1873" d="M122.959 28.438c-2.569 0-3.936-.793-3.936-1.935s1.367-1.935 3.936-1.935 3.936.794 3.936 1.935-1.366 1.935-3.936 1.935m0-8.48c-6.954 0-10.652 2.687-10.652 6.545s3.7 6.545 10.652 6.545 10.653-2.686 10.653-6.545-3.7-6.545-10.653-6.545" transform="translate(-3.501 -.622)" style="fill:#fff"/>
        <path data-name="패스 1874" d="M143.032 19.99h-.115a.427.427 0 0 1-.422-.426c0-2.214-.025-4.465-.061-6.121a3.392 3.392 0 0 0-3.379-3.322h-.078a3.39 3.39 0 0 0-3.379 3.343 638.105 638.105 0 0 0 0 15.956 3.376 3.376 0 0 0 3.366 3.324h.079a3.381 3.381 0 0 0 3.395-3.293c.021-.824.039-1.761.053-2.764a.429.429 0 0 1 .422-.423h.121a3.1 3.1 0 0 0 3.051-3.1v-.077a3.1 3.1 0 0 0-3.051-3.1" transform="translate(-4.226 -.315)" style="fill:#fff"/>
        <path data-name="패스 1875" d="M138.923 34.7c-5.015-.084-18.448-.085-23.637 0a3.029 3.029 0 0 0-2.978 3.028v.072a3.038 3.038 0 0 0 3.027 3.046c4.837.016 16.79.011 19.023-.016a.329.329 0 0 1 .335.334c0 .3 0-.208-.006.106a3.483 3.483 0 0 0 3.484 3.51h.066a3.467 3.467 0 0 0 3.47-3.412c.021-1.523.017-2.459-.012-3.908a2.815 2.815 0 0 0-2.772-2.758" transform="translate(-3.501 -1.079)" style="fill:#fff"/>
    </g>
    <g data-name="그룹 106">
        <path data-name="패스 1876" d="M125.762 4.8a2.656 2.656 0 0 0-1.268-2.432 2.379 2.379 0 0 0-2.536 0 2.655 2.655 0 0 0-1.27 2.432" transform="translate(-3.762 -.062)" style="fill:#fff"/>
        <path data-name="패스 1877" d="M122.818 22.533c-7.362 0-15.185-1.5-15.185-4.286s7.823-4.286 15.185-4.286S138 15.464 138 18.247s-7.823 4.286-15.184 4.286" transform="translate(-3.356 -.434)" style="stroke:#3cb371;fill:#fff"/>
        <path d="M122.8 13.462c-5.42 0-15.67 1-15.67 4.77S117.383 23 122.8 23s15.668-1 15.668-4.77-10.249-4.77-15.668-4.77m0 .969c8.118 0 14.7 1.7 14.7 3.8s-6.581 3.8-14.7 3.8-14.7-1.7-14.7-3.8 6.581-3.8 14.7-3.8" transform="translate(-3.34 -.42)" style="fill:#3cb371"/>
        <path data-name="패스 1879" d="M122.681 18.439c-2.32 0-7.837-.225-8.957-2.319-.732-1.368-.165-4.342 1.29-6.772a9.022 9.022 0 0 1 15.966 0c1.455 2.43 2.022 5.4 1.289 6.771-1.119 2.094-6.634 2.319-8.955 2.319z" transform="translate(-3.535 -.141)" style="fill:#fff"/>
        <path d="M125.762 4.8a2.656 2.656 0 0 0-1.268-2.432 2.379 2.379 0 0 0-2.536 0 2.655 2.655 0 0 0-1.27 2.432" transform="translate(-3.762 -.062)" style="fill:none;stroke-miterlimit:10;stroke:#3cb371"/>
        <path data-name="g" d="M122.983 4.03a9.746 9.746 0 0 0-8.4 5.055c-1.56 2.6-2.12 5.72-1.3 7.248 1.2 2.241 6.392 2.576 9.382 2.576h.637c2.99 0 8.184-.335 9.382-2.576.818-1.528.258-4.645-1.3-7.248a9.746 9.746 0 0 0-8.4-5.055m0 .969c7.236 0 10.032 8.661 8.846 10.877-1.041 1.945-7.068 2.065-8.528 2.065h-.638c-1.461 0-7.488-.12-8.528-2.065C112.951 13.66 115.747 5 122.983 5" transform="translate(-3.52 -.125)" style="stroke-width:.3px;stroke:#3cb371;fill:#3cb371"/>
        <path data-name="gl" d="M113.835 12.681c1.6 2.006 9.177 1.881 9.177 1.881s7.6.125 9.2-1.881M128 14.379c-.443-4.012-2.109-9.755-4.984-9.755-2.838 0-4.5 5.593-4.966 9.6" transform="translate(-3.549 -.143)" style="fill:none;stroke-miterlimit:10;stroke:#3cb371"/>
    </g>
</svg>
