<svg xmlns="http://www.w3.org/2000/svg" width="24" height="20" viewBox="0 0 24 20">
    <g data-name="Icon ionic-ios-quote">
        <g data-name="패스 1991" style="fill:#ff5050;stroke-linecap:round;stroke-linejoin:round">
            <path d="M14.333 27.75h-2.77c-.648 0-1.217-.373-1.45-.95a1.444 1.444 0 0 1 .344-1.583c.698-.679 1.54-1.782 1.804-3.309h-2.178c-2.39 0-4.333-1.757-4.333-3.918v-4.322c0-2.16 1.944-3.918 4.333-3.918h4.514c.838 0 1.618.28 2.197.788.616.54.956 1.287.956 2.103v8.213c0 3.458-1.554 5.6-2.226 6.365a1.57 1.57 0 0 1-1.19.531z" style="stroke:none" transform="rotate(180 14.375 14.375)"/>
            <path d="M10.083 10.75c-1.833 0-3.333 1.313-3.333 2.918v4.322c0 1.605 1.5 2.918 3.333 2.918h2.688c.32 0 .576.237.555.523-.16 2.158-1.305 3.66-2.173 4.504-.327.317-.07.815.41.815h2.77a.57.57 0 0 0 .438-.188c.514-.584 1.979-2.53 1.979-5.708V12.64c0-1.082-.924-1.89-2.153-1.89h-4.514m0-2h4.514c2.329 0 4.153 1.709 4.153 3.89v8.214c0 3.793-1.723 6.17-2.472 7.022a2.568 2.568 0 0 1-1.945.874h-2.77c-1.057 0-1.99-.618-2.378-1.574A2.44 2.44 0 0 1 9.76 24.5c.388-.378.829-.91 1.146-1.592h-.823c-2.94 0-5.333-2.206-5.333-4.918v-4.322c0-2.712 2.393-4.918 5.333-4.918z" style="fill:#fff;stroke:none" transform="rotate(180 14.375 14.375)"/>
        </g>
    </g>
    <g data-name="Icon ionic-ios-quote">
        <g data-name="패스 1991" style="fill:#ff5050;stroke-linecap:round;stroke-linejoin:round">
            <path d="M14.333 27.75h-2.77c-.648 0-1.217-.373-1.45-.95a1.444 1.444 0 0 1 .344-1.583c.698-.679 1.54-1.782 1.804-3.309h-2.178c-2.39 0-4.333-1.757-4.333-3.918v-4.322c0-2.16 1.944-3.918 4.333-3.918h4.514c.838 0 1.618.28 2.197.788.616.54.956 1.287.956 2.103v8.213c0 3.458-1.554 5.6-2.226 6.365a1.57 1.57 0 0 1-1.19.531z" style="stroke:none" transform="rotate(180 9.375 14.375)"/>
            <path d="M10.083 10.75c-1.833 0-3.333 1.313-3.333 2.918v4.322c0 1.605 1.5 2.918 3.333 2.918h2.688c.32 0 .576.237.555.523-.16 2.158-1.305 3.66-2.173 4.504-.327.317-.07.815.41.815h2.77a.57.57 0 0 0 .438-.188c.514-.584 1.979-2.53 1.979-5.708V12.64c0-1.082-.924-1.89-2.153-1.89h-4.514m0-2h4.514c2.329 0 4.153 1.709 4.153 3.89v8.214c0 3.793-1.723 6.17-2.472 7.022a2.568 2.568 0 0 1-1.945.874h-2.77c-1.057 0-1.99-.618-2.378-1.574A2.44 2.44 0 0 1 9.76 24.5c.388-.378.829-.91 1.146-1.592h-.823c-2.94 0-5.333-2.206-5.333-4.918v-4.322c0-2.712 2.393-4.918 5.333-4.918z" style="fill:#fff;stroke:none" transform="rotate(180 9.375 14.375)"/>
        </g>
    </g>
</svg>
